# xmcd CD database file
#
# Track frame offsets:
#	150
#	16922
#	34084
#	53575
#	67615
#	88643
#	105221
#	132368
#	150663
#	173358
#	195330
#	201536
#	219209
#	234324
#	251503
#
# Disc length: 3458 seconds
#
# Revision: 1
# Processed by: cddbd v1.5.1PL0 Copyright (c) Steve Scherf et al.
# Submitted via: Feurio! 1.68 - http://www.feurio.com
#
DISCID=ad0d800f
DTITLE=Comedian Rhythmists - Kaktus
DYEAR=1900
DGENRE=
TTITLE0=Kaktus
TTITLE1=Ups, ein Pups
TTITLE2=Sehr verqueres Publikum
TTITLE3=Weit förn von hier im heil´gen Land
TTITLE4=Oh happy Cactus
TTITLE5=Der Produzent
TTITLE6=Liebeslied
TTITLE7=Jetzt ist sie weg
TTITLE8=Radioaktiv
TTITLE9=Infanterielied
TTITLE10=Deutschland in der Welt
TTITLE11=Give up
TTITLE12=Move Your Cactus
TTITLE13=Hiphophelau
TTITLE14=Herr K. Vom Nachbarhaus
EXTD=
EXTT0=
EXTT1=
EXTT2=
EXTT3=
EXTT4=
EXTT5=
EXTT6=
EXTT7=
EXTT8=
EXTT9=
EXTT10=
EXTT11=
EXTT12=
EXTT13=
EXTT14=
PLAYORDER=
